<?xml version="1.0" standalone="no"?>
<!DOCTYPE svg PUBLIC "-//W3C//DTD SVG 20010904//EN"
 "http://www.w3.org/TR/2001/REC-SVG-20010904/DTD/svg10.dtd">
<svg version="1.0" xmlns="http://www.w3.org/2000/svg"
 width="2000.000000pt" height="2000.000000pt" viewBox="0 0 2000.000000 2000.000000"
 preserveAspectRatio="xMidYMid meet">

<g transform="translate(0.000000,2000.000000) scale(0.100000,-0.100000)"
fill="#000000" stroke="none">
<path d="M9860 17461 c-50 -10 -107 -39 -139 -72 -36 -36 -330 -476 -446 -669
-421 -698 -712 -1315 -923 -1960 -34 -102 -66 -204 -73 -227 -7 -24 -13 -43
-15 -43 -2 0 -90 64 -196 143 -425 313 -1074 713 -1202 738 -87 18 -178 -12
-242 -80 -37 -38 -48 -63 -89 -201 -107 -364 -189 -826 -215 -1215 -22 -333
-9 -790 30 -1101 29 -228 120 -650 165 -765 5 -13 -25 -24 -167 -63 -819 -227
-1614 -590 -2478 -1134 -162 -102 -466 -306 -498 -336 -79 -70 -101 -214 -49
-314 32 -60 75 -95 347 -273 419 -275 778 -484 1150 -670 874 -437 1675 -687
2535 -791 157 -19 233 -22 590 -22 431 -1 512 4 810 50 385 59 685 135 1015
257 l145 54 95 -35 c386 -141 625 -204 1000 -266 261 -43 405 -57 660 -63 212
-5 253 -4 303 11 69 20 140 80 168 141 38 83 17 200 -49 268 -74 77 -151 96
-382 97 -237 1 -464 27 -790 91 -211 42 -309 66 -323 79 -5 4 30 32 78 61 47
30 143 94 213 142 138 96 502 338 567 377 65 38 364 238 440 294 197 143 394
327 586 546 206 235 449 608 583 894 24 53 51 96 58 96 50 -1 477 -126 702
-205 586 -208 1159 -489 1779 -873 l219 -135 -99 -64 c-112 -72 -369 -227
-553 -333 -144 -82 -678 -348 -825 -410 -55 -24 -175 -73 -268 -110 -202 -82
-238 -105 -273 -177 -23 -47 -26 -62 -22 -126 3 -45 12 -87 26 -112 43 -84
135 -145 217 -145 127 0 826 312 1375 613 338 185 973 590 1067 679 17 17 42
53 54 81 39 93 14 223 -58 288 -77 70 -465 325 -778 511 -743 442 -1484 767
-2200 964 -93 25 -174 50 -178 54 -5 4 10 74 33 156 66 242 123 570 151 864
16 169 16 665 0 865 -27 345 -89 727 -166 1030 -67 259 -86 316 -126 366 -74
94 -217 122 -329 64 -306 -157 -809 -477 -1160 -738 -85 -64 -158 -112 -161
-109 -4 4 -35 95 -69 202 -229 719 -574 1438 -1047 2190 -90 142 -312 472
-336 498 -47 51 -163 87 -237 73z m140 -861 c338 -536 625 -1094 825 -1605
233 -595 378 -1189 426 -1740 18 -208 15 -714 -5 -918 -95 -960 -439 -1809
-1006 -2487 -86 -103 -279 -308 -313 -332 l-27 -20 -109 111 c-590 597 -968
1330 -1150 2226 -106 520 -121 1191 -40 1750 133 918 530 1916 1172 2948 106
172 132 206 142 195 7 -7 46 -65 85 -128z m-2978 -1896 c32 -17 230 -140 368
-229 163 -106 419 -293 620 -454 52 -42 100 -81 108 -86 10 -8 7 -43 -17 -185
-92 -537 -101 -1178 -25 -1710 20 -139 98 -523 128 -630 149 -530 349 -984
608 -1388 23 -34 38 -65 34 -69 -13 -13 -379 227 -527 347 -269 217 -501 456
-690 710 -140 188 -234 341 -345 561 -250 500 -391 1025 -435 1616 -23 311 -2
804 46 1118 15 97 71 377 80 403 6 16 10 15 47 -4z m5822 -1 c11 -36 75 -401
90 -513 42 -314 54 -801 27 -1075 -88 -891 -388 -1642 -905 -2265 -96 -116
-332 -356 -440 -449 -137 -117 -372 -287 -516 -375 -72 -43 -133 -77 -136 -74
-3 3 16 39 42 79 179 278 352 634 476 979 107 298 171 543 228 875 64 377 75
509 75 925 0 423 -15 603 -83 1002 l-19 107 26 24 c26 25 189 154 297 237 102
78 204 150 369 260 136 91 217 142 410 261 38 23 52 24 59 2z m-6095 -3295
c93 -205 309 -553 460 -743 170 -213 449 -500 641 -660 273 -227 637 -468 928
-614 46 -23 125 -70 175 -105 51 -35 141 -94 201 -131 73 -46 104 -70 95 -75
-28 -15 -330 -81 -499 -109 -96 -16 -238 -35 -315 -42 -179 -15 -647 -16 -835
0 -953 78 -2012 435 -3043 1025 -219 125 -537 322 -537 332 0 9 309 202 491
307 522 301 969 510 1520 711 148 54 619 192 665 195 6 1 30 -41 53 -91z"/>
<path d="M13001 8949 c-158 -31 -244 -218 -168 -365 96 -188 360 -188 460 0
31 58 30 174 0 232 -30 57 -97 111 -157 129 -55 16 -70 17 -135 4z"/>
<path d="M15668 5425 c-98 -91 -176 -223 -214 -360 -25 -92 -30 -310 -10 -417
19 -100 67 -222 116 -294 39 -57 134 -154 150 -154 6 0 15 11 20 25 8 21 3 34
-42 92 -58 77 -99 160 -124 248 -25 91 -31 368 -10 476 20 101 87 245 145 311
38 42 40 48 30 77 -6 17 -14 31 -17 31 -4 0 -24 -16 -44 -35z"/>
<path d="M19330 5435 c-13 -35 -15 -31 31 -83 48 -54 110 -179 136 -272 26
-93 26 -416 -1 -510 -25 -91 -69 -179 -126 -256 -43 -55 -48 -68 -40 -89 5
-14 13 -25 18 -25 13 0 111 99 143 146 43 62 95 178 116 254 25 93 25 368 0
460 -31 111 -99 238 -167 313 -80 87 -97 96 -110 62z"/>
<path d="M6612 4938 c-88 -233 -164 -431 -167 -440 -6 -16 0 -18 51 -18 l59 0
40 113 40 112 185 3 186 2 40 -112 41 -113 58 -3 c51 -3 57 -1 53 15 -4 13
-268 706 -323 846 -5 13 -19 17 -54 17 l-48 0 -161 -422z m292 53 c37 -101 65
-185 63 -188 -2 -2 -70 -2 -150 -1 l-145 3 63 175 c89 248 85 239 95 215 4
-11 37 -103 74 -204z"/>
<path d="M9406 5352 c-5 -8 -231 -595 -312 -809 l-23 -63 57 0 58 0 41 113 40
112 185 3 186 2 36 -103 c21 -56 41 -108 45 -115 5 -9 26 -12 62 -10 l55 3
-167 435 -166 435 -46 3 c-25 2 -48 -1 -51 -6z m124 -345 c40 -109 70 -200 68
-203 -3 -2 -70 -3 -150 -2 l-145 3 49 135 c69 192 100 272 103 268 2 -2 36
-92 75 -201z"/>
<path d="M920 4915 l0 -435 55 0 55 0 2 335 3 336 219 -336 218 -335 59 0 59
0 0 435 0 435 -55 0 -55 0 0 -337 c0 -249 -3 -334 -11 -326 -6 6 -107 157
-223 335 l-211 323 -58 3 -57 3 0 -436z"/>
<path d="M2170 4915 l0 -435 275 0 275 0 0 45 0 45 -220 0 -220 0 0 155 0 155
190 0 190 0 0 50 0 50 -190 0 -190 0 0 140 0 140 215 0 215 0 0 45 0 45 -270
0 -270 0 0 -435z"/>
<path d="M3195 5258 c13 -51 60 -247 106 -435 l83 -343 53 0 c29 0 53 2 53 5
0 3 43 150 95 327 52 177 95 330 95 340 0 10 5 18 10 18 6 0 10 -7 10 -16 0
-9 41 -165 92 -345 l92 -329 53 0 c46 0 53 3 58 23 3 12 44 182 91 377 47 195
91 381 99 413 l13 57 -56 0 -57 0 -64 -288 c-36 -158 -70 -316 -76 -352 -7
-36 -15 -58 -18 -50 -7 19 -187 677 -187 684 0 3 -22 6 -49 6 -39 0 -51 -4
-55 -17 -17 -58 -167 -597 -179 -643 l-14 -55 -8 40 c-6 38 -66 308 -122 558
l-27 117 -57 0 -57 0 23 -92z"/>
<path d="M5380 4915 l0 -435 55 0 55 0 0 148 0 148 53 52 c29 29 55 52 57 52
3 0 73 -90 155 -200 l150 -199 68 -1 c64 0 67 1 55 18 -7 9 -88 117 -180 240
-93 122 -168 224 -168 228 0 3 68 83 152 177 83 95 158 180 166 190 14 16 11
17 -51 17 l-66 0 -193 -215 -193 -215 -3 215 -2 215 -55 0 -55 0 0 -435z"/>
<path d="M7700 4915 l0 -435 57 0 56 0 -6 353 -7 352 118 -290 c65 -159 129
-318 143 -352 l24 -63 45 0 46 0 139 346 c77 190 144 348 149 351 4 3 6 -3 3
-13 -3 -11 -9 -169 -13 -351 l-7 -333 62 0 61 0 0 435 0 436 -77 -3 -76 -3
-143 -355 c-112 -278 -144 -350 -151 -334 -4 11 -69 172 -143 357 l-135 337
-72 0 -73 0 0 -435z"/>
<path d="M10330 4915 l0 -435 265 0 265 0 0 45 0 45 -210 0 -210 0 0 390 0
390 -55 0 -55 0 0 -435z"/>
<path d="M12040 4915 l0 -435 55 0 55 0 0 170 0 170 138 0 c216 0 297 32 348
137 59 119 23 271 -79 340 -66 44 -122 53 -332 53 l-185 0 0 -435z m427 322
c51 -27 77 -72 81 -143 3 -51 0 -70 -18 -102 -38 -67 -64 -77 -232 -80 l-148
-4 0 177 0 177 143 -4 c110 -3 149 -7 174 -21z"/>
<path d="M13110 5341 c0 -4 66 -185 146 -402 80 -217 151 -409 157 -426 10
-32 13 -33 63 -33 l52 0 86 233 c47 127 119 322 160 432 l74 200 -55 3 c-31 2
-59 -1 -63 -5 -5 -4 -61 -161 -125 -348 -65 -187 -121 -346 -125 -353 -4 -8
-57 135 -130 347 l-123 361 -59 0 c-32 0 -58 -4 -58 -9z"/>
<path d="M14270 5305 l0 -45 140 0 140 0 0 -390 0 -390 55 0 55 0 0 390 0 390
140 0 140 0 0 45 0 45 -335 0 -335 0 0 -45z"/>
<path d="M16240 4915 l0 -435 265 0 265 0 0 45 0 45 -210 0 -210 0 0 390 0
390 -55 0 -55 0 0 -435z"/>
<path d="M17040 5305 l0 -45 140 0 140 0 0 -390 0 -390 55 0 55 0 0 390 0 390
140 0 140 0 0 45 0 45 -335 0 -335 0 0 -45z"/>
<path d="M18210 4916 l0 -436 159 0 c182 0 253 16 332 74 90 66 135 165 145
316 15 215 -64 375 -220 447 -58 26 -69 28 -238 31 l-178 4 0 -436z m376 316
c103 -53 146 -146 147 -316 0 -134 -19 -198 -78 -264 -58 -65 -107 -82 -232
-82 l-93 0 0 346 0 347 108 -5 c83 -4 116 -9 148 -26z"/>
</g>
</svg>
